<?xml version="1.0" encoding="utf-8"?>
<!-- Generator: Adobe Illustrator 18.0.0, SVG Export Plug-In . SVG Version: 6.00 Build 0)  -->
<!DOCTYPE svg PUBLIC "-//W3C//DTD SVG 1.1//EN" "http://www.w3.org/Graphics/SVG/1.1/DTD/svg11.dtd">
<svg version="1.1" xmlns="http://www.w3.org/2000/svg" xmlns:xlink="http://www.w3.org/1999/xlink" x="0px" y="0px"
	 viewBox="0 0 960 560" enable-background="new 0 0 960 560" xml:space="preserve">
<g id="Layer_3" display="none">
	
		<text transform="matrix(1 0 0 1 1355.1165 92.2365)" display="inline" fill="#64BEB4" font-family="'CaviarDreams-Bold'" font-size="60">Cor</text>
	<rect x="980.5" y="928" display="inline" fill="none" width="370.1" height="96.5"/>
	<text transform="matrix(1 0 0 1 987.3535 939.0496)" display="inline"><tspan x="0" y="0" font-family="'CourierNewPSMT'" font-size="18">Regular utilizado na logo apenas.</tspan><tspan x="27" y="21.6" font-family="'CourierNewPSMT'" font-size="18">Negrito utilizado em títulos</tspan></text>
	<rect x="1465.6" y="928" display="inline" fill="none" width="353.9" height="96.5"/>
	<text transform="matrix(1 0 0 1 1491.3574 939.0496)" display="inline" font-family="'CourierNewPSMT'" font-size="18">Utilizado para texto corrido</text>
	<g display="inline">
		<g>
			<path fill="#96E1DC" d="M1413.2,235.8c22.1,0,40,17.9,40,40s-17.9,40-40,40s-40-17.9-40-40S1391.1,235.8,1413.2,235.8
				 M1413.2,215.8c-33.1,0-60,26.9-60,60s26.9,60,60,60c33.1,0,60-26.9,60-60S1446.3,215.8,1413.2,215.8L1413.2,215.8z"/>
		</g>
	</g>
	<g display="inline">
		<g>
			<path fill="#64BEB4" d="M1489.2,336.8c16.5,0,30,13.5,30,30s-13.5,30-30,30s-30-13.5-30-30S1472.7,336.8,1489.2,336.8
				 M1489.2,321.8c-24.9,0-45,20.1-45,45s20.1,45,45,45s45-20.1,45-45S1514.1,321.8,1489.2,321.8L1489.2,321.8z"/>
		</g>
	</g>
	<g display="inline">
		<g>
			<path fill="#002828" d="M1331.2,333.8c9.9,0,18,8.1,18,18s-8.1,18-18,18s-18-8.1-18-18S1321.2,333.8,1331.2,333.8 M1331.2,321.8
				c-16.6,0-30,13.4-30,30s13.4,30,30,30c16.6,0,30-13.4,30-30S1347.7,321.8,1331.2,321.8L1331.2,321.8z"/>
		</g>
	</g>
	<g display="inline">
		<g>
			<path fill="#AAFFF8" d="M1331.2,163.8c16.5,0,30,13.5,30,30s-13.5,30-30,30s-30-13.5-30-30S1314.6,163.8,1331.2,163.8
				 M1331.2,148.8c-24.9,0-45,20.1-45,45s20.1,45,45,45c24.9,0,45-20.1,45-45S1356,148.8,1331.2,148.8L1331.2,148.8z"/>
		</g>
	</g>
	<text transform="matrix(1 0 0 1 1479.2899 251.8669)" display="inline"><tspan x="0" y="0" font-family="'CourierNewPSMT'" font-size="18">R:150</tspan><tspan x="0" y="21.6" font-family="'CourierNewPSMT'" font-size="18">G:225 </tspan><tspan x="0" y="43.2" font-family="'CourierNewPSMT'" font-size="18">B:220</tspan></text>
	<text transform="matrix(1 0 0 1 1227.457 179.2003)" display="inline"><tspan x="0" y="0" font-family="'CourierNewPSMT'" font-size="16">R:170</tspan><tspan x="0" y="19.2" font-family="'CourierNewPSMT'" font-size="16">G:255 </tspan><tspan x="0" y="38.4" font-family="'CourierNewPSMT'" font-size="16">B:248</tspan></text>
	<text transform="matrix(1 0 0 1 1538.2899 390.5336)" display="inline"><tspan x="0" y="0" font-family="'CourierNewPSMT'" font-size="16">R:100</tspan><tspan x="0" y="19.2" font-family="'CourierNewPSMT'" font-size="16">G:190 </tspan><tspan x="0" y="38.4" font-family="'CourierNewPSMT'" font-size="16">B:180</tspan></text>
	<text transform="matrix(1 0 0 1 1256.2899 375.5336)" display="inline"><tspan x="0" y="0" font-family="'CourierNewPSMT'" font-size="14">R:000</tspan><tspan x="0" y="16.8" font-family="'CourierNewPSMT'" font-size="14">G:040 </tspan><tspan x="0" y="33.6" font-family="'CourierNewPSMT'" font-size="14">B:040</tspan></text>
	
		<text transform="matrix(1 0 0 1 1256.9426 669.7076)" display="inline" fill="#64BEB4" font-family="'CaviarDreams-Bold'" font-size="60">Tipografia</text>
	<text transform="matrix(1 0 0 1 965.9535 843.5985)" display="inline" font-family="'CaviarDreams'" font-size="60">Caviar Dreams</text>
	<text transform="matrix(1 0 0 1 1444.5502 843.5985)" display="inline" font-family="'CourierNewPSMT'" font-size="60">Courier New</text>
	<text transform="matrix(1 0 0 1 999.2725 892.9318)" display="inline"><tspan x="0" y="0" font-family="'CaviarDreams'" font-size="36">Regular</tspan><tspan x="124.4" y="0" font-family="'CaviarDreams'" font-size="36" letter-spacing="80">	</tspan><tspan x="217" y="0" font-family="'CaviarDreams-Bold'" font-size="36">Negrito</tspan></text>
</g>
<g id="Layer_2">
	<g>
		<path fill="#64BEB4" d="M329.6,345.3h-47.9l-19.3,53h-8.3l51.5-141.4l51.4,141.4h-8.2L329.6,345.3z M326.7,337.6l-21.1-58
			l-21.1,58H326.7z"/>
		<path fill="#64BEB4" d="M432.9,350.3c-0.7,0.1-1.5,0.1-2.3,0.1h-23.5v47.9h-7.8V260.1h36.3c10.5,1.4,19.5,5.8,26.9,13.2
			c8.8,8.8,13.2,19.4,13.2,31.9c0,12.5-4.4,23.2-13.2,32c-6.1,6.1-13.1,10.1-21,12l31.9,49.2h-9.6L432.9,350.3z M407.1,267.9v74.6
			h23.5c10.3,0,19-3.6,26.3-10.9c7.3-7.3,10.9-16.1,10.9-26.4c0-10.3-3.6-19.1-10.9-26.3c-7.3-7.3-16.1-10.9-26.3-10.9H407.1z"/>
		<path fill="#64BEB4" d="M546.3,260.1c7.1,0,13.1,2.5,18.2,7.5c5,5,7.6,11.1,7.6,18.1c0,7.1-3.7,13.8-11,20
			c6.4,1.3,12.5,5.1,18.2,11.4c9.2,9.3,13.8,20.5,13.8,33.6c0,13.1-4.6,24.4-13.8,34c-8.6,8.9-18.8,13.4-30.8,13.6v0.1h-26.8V260.1
			H546.3z M529.6,267.9v35.3h18.7c4.3-0.4,8-2,11.1-4.8c3.5-3.2,5.3-7.4,5.3-12.6s-1.8-9.5-5.3-12.8c-3.5-3.4-7.9-5.1-13-5.1H529.6z
			 M529.6,311.5v79h19v0.1c9.6-0.6,17.9-4.6,24.9-11.8c7.7-7.9,11.5-17.2,11.5-28.1s-3.8-20.1-11.5-27.7
			c-7.7-7.7-16.9-11.5-27.7-11.5H529.6z"/>
		<path fill="#64BEB4" d="M756.1,279c13.8,13.8,20.7,30.5,20.7,50c0,19.5-6.9,36.2-20.7,50c-13.8,13.8-30.5,20.7-50,20.7
			s-36.2-6.9-50-20.7c-13.8-13.8-20.7-30.5-20.7-50c0-19.5,6.9-36.2,20.7-50c13.8-13.8,30.5-20.7,50-20.7S742.3,265.2,756.1,279z
			 M706.1,276.3c-14.6,0-27,5.1-37.3,15.4c-10.3,10.3-15.4,22.7-15.4,37.3c0,14.6,5.2,27,15.5,37.3c10.3,10.3,22.7,15.5,37.2,15.5
			c14.6,0,27-5.2,37.3-15.5c10.3-10.3,15.4-22.7,15.4-37.3c0-14.6-5.1-27-15.4-37.3C733.1,281.5,720.7,276.3,706.1,276.3z"/>
		<path fill="#64BEB4" d="M860.8,260.1l51.9,89.8l51.8-89.8h8.9l-0.3,0.6v137.6h-7.8V274.2l-52.6,91.1l-52.7-91.1v124.1h-7.8V260.7
			l-0.3-0.6H860.8z"/>
		<path fill="#64BEB4" d="M1027.2,398.3V260.1h7.8v130.4h53.6v7.8H1027.2z"/>
	</g>
	<g display="none">
		
			<text transform="matrix(1 0 0 1 215.661 495.1783)" display="inline" fill="#64BEB4" font-family="'CourierNewPSMT'" font-size="25.2431" letter-spacing="3">Triagem por Machine Learning</text>
	</g>
	<path fill="#96E1DC" d="M9.4,367.6c0,17.5,14.2,31.8,31.8,31.8c17.5,0,31.8-14.2,31.8-31.8c0-6.7-2.1-12.9-5.6-18.1l22.5-22.2
		c7.1,5.5,16.1,8.7,25.7,8.7c10.2,0,19.5-3.6,26.8-9.6l8.3,8.3c-2.2,3.3-3.5,7.3-3.5,11.6c0,10.7,8,19.6,18.4,21v11.2
		c-4.5,1.2-7.8,5.3-7.8,10.2c0,5.8,4.7,10.6,10.6,10.6c5.8,0,10.6-4.7,10.6-10.6c0-4.9-3.3-9-7.8-10.2v-11.2
		c10.4-1.4,18.4-10.2,18.4-21c0-11.7-9.5-21.2-21.2-21.2c-4.3,0-8.4,1.3-11.7,3.5l-8.3-8.3c6-7.3,9.6-16.6,9.6-26.8
		c0-23.4-19-42.4-42.4-42.4c-22.2,0-40.4,17.1-42.2,38.8H40.8c-1.5-6.6-7.3-11.8-14.2-12.3c-0.4,0-0.9-0.1-1.3-0.1
		c-9.2,0-16.6,7.8-15.8,17.2c0.6,7.7,6.8,13.9,14.5,14.5c0.4,0,0.9,0.1,1.3,0.1c7.6,0,13.9-5.3,15.5-12.4h32.5
		c0.7,8.3,3.7,15.9,8.5,22.1l-22.5,22.2c-5.1-3.6-11.4-5.7-18.2-5.7C23.6,335.8,9.4,350.1,9.4,367.6z M31.8,299.6
		c-1.7,1.8-4,2.8-6.5,2.8c-0.2,0-0.5,0-0.7,0c-4.3-0.3-7.7-3.8-8.1-8.1c-0.2-2.5,0.6-4.9,2.3-6.7c1.7-1.8,4-2.8,6.5-2.8
		c0.2,0,0.5,0,0.7,0c4.3,0.3,7.7,3.8,8.1,8.1C34.3,295.4,33.5,297.8,31.8,299.6z M168.3,383.8c2.7,0,4.9,2.2,4.9,4.9
		s-2.2,4.9-4.9,4.9c-2.7,0-4.9-2.2-4.9-4.9S165.6,383.8,168.3,383.8z M155.6,346.4c0-7,5.7-12.7,12.7-12.7s12.7,5.7,12.7,12.7
		s-5.7,12.7-12.7,12.7S155.6,353.4,155.6,346.4z M115.5,321.9c-15.6,0-28.2-12.7-28.2-28.2c0-15.6,12.7-28.2,28.2-28.2
		s28.2,12.7,28.2,28.2C143.7,309.2,131.1,321.9,115.5,321.9z M20,367.6c0-11.7,9.5-21.2,21.2-21.2s21.2,9.5,21.2,21.2
		c0,11.7-9.5,21.2-21.2,21.2S20,379.3,20,367.6z"/>
</g>
</svg>
