<?xml version="1.0" encoding="utf-8"?>
<!-- Generator: Adobe Illustrator 18.0.0, SVG Export Plug-In . SVG Version: 6.00 Build 0)  -->
<!DOCTYPE svg PUBLIC "-//W3C//DTD SVG 1.1//EN" "http://www.w3.org/Graphics/SVG/1.1/DTD/svg11.dtd">
<svg version="1.1" xmlns="http://www.w3.org/2000/svg" xmlns:xlink="http://www.w3.org/1999/xlink" x="0px" y="0px"
	 viewBox="0 0 960 560" enable-background="new 0 0 960 560" xml:space="preserve">
<g id="Layer_3" display="none">
	
		<text transform="matrix(1 0 0 1 1355.1165 92.2365)" display="inline" fill="#64BEB4" font-family="'CaviarDreams-Bold'" font-size="60">Cor</text>
	<rect x="980.5" y="928" display="inline" fill="none" width="370.1" height="96.5"/>
	<text transform="matrix(1 0 0 1 987.3535 939.0496)" display="inline"><tspan x="0" y="0" font-family="'CourierNewPSMT'" font-size="18">Regular utilizado na logo apenas.</tspan><tspan x="27" y="21.6" font-family="'CourierNewPSMT'" font-size="18">Negrito utilizado em títulos</tspan></text>
	<rect x="1465.6" y="928" display="inline" fill="none" width="353.9" height="96.5"/>
	<text transform="matrix(1 0 0 1 1491.3574 939.0496)" display="inline" font-family="'CourierNewPSMT'" font-size="18">Utilizado para texto corrido</text>
	<g display="inline">
		<g>
			<path fill="#96E1DC" d="M1413.2,235.8c22.1,0,40,17.9,40,40s-17.9,40-40,40s-40-17.9-40-40S1391.1,235.8,1413.2,235.8
				 M1413.2,215.8c-33.1,0-60,26.9-60,60s26.9,60,60,60c33.1,0,60-26.9,60-60S1446.3,215.8,1413.2,215.8L1413.2,215.8z"/>
		</g>
	</g>
	<g display="inline">
		<g>
			<path fill="#64BEB4" d="M1489.2,336.8c16.5,0,30,13.5,30,30s-13.5,30-30,30s-30-13.5-30-30S1472.7,336.8,1489.2,336.8
				 M1489.2,321.8c-24.9,0-45,20.1-45,45s20.1,45,45,45s45-20.1,45-45S1514.1,321.8,1489.2,321.8L1489.2,321.8z"/>
		</g>
	</g>
	<g display="inline">
		<g>
			<path fill="#002828" d="M1331.2,333.8c9.9,0,18,8.1,18,18s-8.1,18-18,18s-18-8.1-18-18S1321.2,333.8,1331.2,333.8 M1331.2,321.8
				c-16.6,0-30,13.4-30,30s13.4,30,30,30c16.6,0,30-13.4,30-30S1347.7,321.8,1331.2,321.8L1331.2,321.8z"/>
		</g>
	</g>
	<g display="inline">
		<g>
			<path fill="#AAFFF8" d="M1331.2,163.8c16.5,0,30,13.5,30,30s-13.5,30-30,30s-30-13.5-30-30S1314.6,163.8,1331.2,163.8
				 M1331.2,148.8c-24.9,0-45,20.1-45,45s20.1,45,45,45c24.9,0,45-20.1,45-45S1356,148.8,1331.2,148.8L1331.2,148.8z"/>
		</g>
	</g>
	<text transform="matrix(1 0 0 1 1479.2899 251.8669)" display="inline"><tspan x="0" y="0" font-family="'CourierNewPSMT'" font-size="18">R:150</tspan><tspan x="0" y="21.6" font-family="'CourierNewPSMT'" font-size="18">G:225 </tspan><tspan x="0" y="43.2" font-family="'CourierNewPSMT'" font-size="18">B:220</tspan></text>
	<text transform="matrix(1 0 0 1 1227.457 179.2003)" display="inline"><tspan x="0" y="0" font-family="'CourierNewPSMT'" font-size="16">R:170</tspan><tspan x="0" y="19.2" font-family="'CourierNewPSMT'" font-size="16">G:255 </tspan><tspan x="0" y="38.4" font-family="'CourierNewPSMT'" font-size="16">B:248</tspan></text>
	<text transform="matrix(1 0 0 1 1538.2899 390.5336)" display="inline"><tspan x="0" y="0" font-family="'CourierNewPSMT'" font-size="16">R:100</tspan><tspan x="0" y="19.2" font-family="'CourierNewPSMT'" font-size="16">G:190 </tspan><tspan x="0" y="38.4" font-family="'CourierNewPSMT'" font-size="16">B:180</tspan></text>
	<text transform="matrix(1 0 0 1 1256.2899 375.5336)" display="inline"><tspan x="0" y="0" font-family="'CourierNewPSMT'" font-size="14">R:000</tspan><tspan x="0" y="16.8" font-family="'CourierNewPSMT'" font-size="14">G:040 </tspan><tspan x="0" y="33.6" font-family="'CourierNewPSMT'" font-size="14">B:040</tspan></text>
	
		<text transform="matrix(1 0 0 1 1256.9426 669.7076)" display="inline" fill="#64BEB4" font-family="'CaviarDreams-Bold'" font-size="60">Tipografia</text>
	<text transform="matrix(1 0 0 1 965.9535 843.5985)" display="inline" font-family="'CaviarDreams'" font-size="60">Caviar Dreams</text>
	<text transform="matrix(1 0 0 1 1444.5502 843.5985)" display="inline" font-family="'CourierNewPSMT'" font-size="60">Courier New</text>
	<text transform="matrix(1 0 0 1 999.2725 892.9318)" display="inline"><tspan x="0" y="0" font-family="'CaviarDreams'" font-size="36">Regular</tspan><tspan x="124.4" y="0" font-family="'CaviarDreams'" font-size="36" letter-spacing="80">	</tspan><tspan x="217" y="0" font-family="'CaviarDreams-Bold'" font-size="36">Negrito</tspan></text>
</g>
<g id="Layer_2">
	<g display="none">
		<path display="inline" fill="#64BEB4" d="M139.3,394.6H91.5l-19.3,53h-8.3l51.5-141.4l51.4,141.4h-8.2L139.3,394.6z M136.5,386.8
			l-21.1-58l-21.1,58H136.5z"/>
		<path display="inline" fill="#64BEB4" d="M242.6,399.5c-0.7,0.1-1.5,0.1-2.3,0.1h-23.5v47.9H209V309.3h36.3
			c10.5,1.4,19.5,5.8,26.9,13.2c8.8,8.8,13.2,19.4,13.2,31.9c0,12.5-4.4,23.2-13.2,32c-6.1,6.1-13.1,10.1-21,12l31.9,49.2h-9.6
			L242.6,399.5z M216.8,317.2v74.6h23.5c10.3,0,19-3.6,26.3-10.9c7.3-7.3,10.9-16.1,10.9-26.4c0-10.3-3.6-19.1-10.9-26.3
			c-7.3-7.3-16.1-10.9-26.3-10.9H216.8z"/>
		<path display="inline" fill="#64BEB4" d="M356.1,309.3c7.1,0,13.1,2.5,18.2,7.5c5,5,7.6,11.1,7.6,18.1c0,7.1-3.7,13.8-11,20
			c6.4,1.3,12.5,5.1,18.2,11.4c9.2,9.3,13.8,20.5,13.8,33.6c0,13.1-4.6,24.4-13.8,34c-8.6,8.9-18.8,13.4-30.8,13.6v0.1h-26.8V309.3
			H356.1z M339.3,317.1v35.3h18.7c4.3-0.4,8-2,11.1-4.8c3.5-3.2,5.3-7.4,5.3-12.6s-1.8-9.5-5.3-12.8c-3.5-3.4-7.9-5.1-13-5.1H339.3z
			 M339.3,360.7v79h19v0.1c9.6-0.6,17.9-4.6,24.9-11.8c7.7-7.9,11.5-17.2,11.5-28.1c0-10.8-3.8-20.1-11.5-27.7s-16.9-11.5-27.7-11.5
			H339.3z"/>
		<path display="inline" fill="#64BEB4" d="M565.8,328.2c13.8,13.8,20.7,30.5,20.7,50s-6.9,36.2-20.7,50
			c-13.8,13.8-30.5,20.7-50,20.7s-36.2-6.9-50-20.7c-13.8-13.8-20.7-30.5-20.7-50s6.9-36.2,20.7-50c13.8-13.8,30.5-20.7,50-20.7
			S552,314.4,565.8,328.2z M515.8,325.5c-14.6,0-27,5.1-37.3,15.4c-10.3,10.3-15.4,22.7-15.4,37.3c0,14.6,5.2,27,15.5,37.3
			c10.3,10.3,22.7,15.5,37.2,15.5c14.6,0,27-5.2,37.3-15.5c10.3-10.3,15.4-22.7,15.4-37.3c0-14.6-5.1-27-15.4-37.3
			C542.8,330.7,530.4,325.5,515.8,325.5z"/>
		<path display="inline" fill="#64BEB4" d="M670.6,309.3l51.9,89.8l51.8-89.8h8.9l-0.3,0.6v137.6h-7.8V323.4l-52.6,91.1l-52.7-91.1
			v124.1H662V309.9l-0.3-0.6H670.6z"/>
		<path display="inline" fill="#64BEB4" d="M836.9,447.5V309.3h7.8v130.4h53.6v7.8H836.9z"/>
	</g>
	<g display="none">
		
			<text transform="matrix(1 0 0 1 215.661 495.1783)" display="inline" fill="#64BEB4" font-family="'CourierNewPSMT'" font-size="25.2431" letter-spacing="3">Triagem por Machine Learning</text>
	</g>
	<path fill="#96E1DC" d="M356.9,231.8c0,26.4,21.4,47.7,47.7,47.7c26.4,0,47.7-21.4,47.7-47.7c0-10.1-3.1-19.4-8.5-27.2l33.7-33.4
		c10.7,8.2,24.1,13.1,38.7,13.1c15.3,0,29.3-5.4,40.3-14.4l12.5,12.5c-3.3,5-5.2,11-5.2,17.5c0,16.1,12,29.5,27.6,31.5v16.9
		c-6.7,1.9-11.7,8-11.7,15.3c0,8.8,7.1,15.9,15.9,15.9c8.8,0,15.9-7.1,15.9-15.9c0-7.3-4.9-13.5-11.7-15.3v-16.9
		c15.6-2.1,27.6-15.4,27.6-31.5c0-17.6-14.2-31.8-31.8-31.8c-6.5,0-12.6,2-17.6,5.3l-12.4-12.4c9-11,14.4-25,14.4-40.3
		c0-35.1-28.5-63.6-63.6-63.6c-33.4,0-60.7,25.7-63.4,58.3h-48.8c-2.3-10-10.9-17.7-21.3-18.5c-0.7-0.1-1.3-0.1-1.9-0.1
		c-13.8,0-24.9,11.7-23.8,25.8c0.9,11.6,10.3,20.9,21.9,21.9c0.7,0.1,1.3,0.1,1.9,0.1c11.4,0,20.9-7.9,23.3-18.6h48.8
		c1,12.4,5.6,23.9,12.8,33.2l-33.7,33.4c-7.7-5.4-17.1-8.6-27.3-8.6C378.3,184,356.9,205.4,356.9,231.8z M390.6,129.7
		c-2.5,2.7-6,4.3-9.7,4.3c-0.4,0-0.7,0-1.1,0c-6.4-0.5-11.6-5.7-12.1-12.1c-0.3-3.8,0.9-7.4,3.5-10.1c2.5-2.7,6-4.3,9.7-4.3
		c0.4,0,0.7,0,1.1,0c6.4,0.5,11.6,5.7,12.1,12.1C394.3,123.3,393.1,126.9,390.6,129.7z M595.6,256.2c4.1,0,7.4,3.3,7.4,7.4
		c0,4.1-3.3,7.4-7.4,7.4c-4.1,0-7.4-3.3-7.4-7.4C588.2,259.5,591.5,256.2,595.6,256.2z M576.5,199.9c0-10.5,8.6-19.1,19.1-19.1
		s19.1,8.6,19.1,19.1s-8.6,19.1-19.1,19.1S576.5,210.4,576.5,199.9z M516.3,163.1c-23.4,0-42.4-19-42.4-42.4
		c0-23.4,19-42.4,42.4-42.4c23.4,0,42.4,19,42.4,42.4C558.7,144.1,539.7,163.1,516.3,163.1z M372.9,231.8
		c0-17.5,14.3-31.8,31.8-31.8c17.5,0,31.8,14.3,31.8,31.8s-14.3,31.8-31.8,31.8C387.1,263.6,372.9,249.3,372.9,231.8z"/>
</g>
</svg>
